<?xml version="1.0" standalone="no"?>
<!DOCTYPE svg PUBLIC "-//W3C//DTD SVG 20010904//EN"
 "http://www.w3.org/TR/2001/REC-SVG-20010904/DTD/svg10.dtd">
<svg version="1.0" xmlns="http://www.w3.org/2000/svg"
 width="559.000000pt" height="897.000000pt" viewBox="0 0 559.000000 897.000000"
 preserveAspectRatio="xMidYMid meet">

<g transform="translate(0.000000,897.000000) scale(0.100000,-0.100000)"
fill="#000000" stroke="none">
<path d="M2860 8923 c-88 -7 -266 -34 -345 -54 -324 -81 -567 -220 -841 -483
-110 -104 -277 -299 -333 -386 l-22 -35 23 29 c184 233 303 361 441 479 334
286 674 415 1167 446 113 7 120 8 45 8 -49 0 -110 -2 -135 -4z"/>
<path d="M3203 8913 c9 -2 23 -2 30 0 6 3 -1 5 -18 5 -16 0 -22 -2 -12 -5z"/>
<path d="M2907 8773 c18 -2 50 -2 70 0 21 2 7 4 -32 4 -38 0 -55 -2 -38 -4z"/>
<path d="M2060 8746 c-259 -77 -457 -184 -662 -356 -118 -99 -274 -257 -254
-257 8 0 14 5 13 11 -1 6 5 10 13 8 8 -2 12 0 8 4 -10 9 12 35 23 28 5 -3 8 0
7 7 -2 7 3 13 10 14 6 0 13 5 13 10 2 12 41 41 51 37 5 -1 7 4 5 11 -1 6 4 11
11 9 8 -1 11 1 9 5 -3 5 1 14 9 21 8 7 14 10 14 7 0 -3 9 4 20 15 12 12 26 18
32 14 7 -4 8 -3 4 4 -4 7 -1 12 8 12 9 0 16 5 16 10 0 6 7 10 15 10 9 0 18 7
21 15 4 8 10 12 15 9 5 -3 9 0 9 5 0 6 6 11 14 11 8 0 16 3 18 8 2 4 21 20 42
36 22 16 36 23 32 15 -4 -8 -1 -6 7 4 8 9 18 17 22 17 5 0 17 8 28 18 15 12
19 13 13 2 -6 -13 -5 -13 6 0 28 33 305 176 468 241 61 24 31 22 -60 -5z"/>
<path d="M2750 8763 c-190 -30 -374 -85 -525 -158 -180 -87 -323 -193 -498
-369 -126 -126 -347 -396 -324 -396 2 0 19 21 37 48 134 189 386 447 552 565
239 170 535 279 848 310 23 3 18 4 -15 4 -27 0 -61 -2 -75 -4z"/>
<path d="M1091 8086 c-8 -10 -9 -16 -1 -21 6 -4 9 -1 8 7 -2 7 3 12 10 10 8
-1 11 2 7 8 -8 13 -10 13 -24 -4z"/>
<path d="M1044 8028 l-19 -23 23 19 c21 18 27 26 19 26 -2 0 -12 -10 -23 -22z"/>
<path d="M1002 7977 c-7 -8 -8 -18 -1 -27 8 -12 9 -11 7 5 -2 12 2 19 10 17 8
-1 11 2 7 8 -8 13 -10 13 -23 -3z"/>
<path d="M970 7935 c-7 -9 -8 -15 -2 -15 5 0 12 7 16 15 3 8 4 15 2 15 -2 0
-9 -7 -16 -15z"/>
<path d="M895 7826 c-36 -52 -54 -89 -50 -97 5 -7 4 -10 -3 -5 -6 4 -31 -28
-60 -76 -369 -618 -592 -1416 -679 -2428 -22 -259 -25 -1067 -5 -1345 108
-1479 471 -2536 1094 -3181 384 -397 823 -611 1343 -654 161 -13 445 -3 479
18 6 3 37 7 70 9 34 2 86 6 116 9 30 3 73 7 95 9 120 9 447 77 433 90 -2 2
-50 -8 -108 -21 -446 -102 -913 -59 -1317 120 -333 148 -662 416 -909 742 -48
62 -91 111 -97 107 -6 -3 -7 -1 -3 6 4 7 -18 51 -53 105 -33 52 -71 117 -86
145 -14 29 -30 49 -35 46 -6 -4 -7 1 -3 11 5 13 3 15 -7 9 -8 -5 -11 -4 -7 2
4 6 -20 68 -53 137 -282 597 -487 1452 -540 2256 -6 96 -15 193 -20 215 -5 22
-7 76 -6 120 2 47 1 61 -2 35 -6 -40 -7 -36 -13 40 -3 47 -4 4 -2 -95 7 -282
43 -668 94 -993 11 -74 19 -135 17 -138 -7 -6 -57 284 -73 421 -72 626 -80
1272 -25 1945 24 295 34 381 66 570 57 334 125 617 223 922 71 220 74 237 57
313 -8 33 -14 56 -15 51 -2 -19 -31 18 -31 41 0 17 -4 22 -12 17 -10 -6 -10
-5 -1 7 9 11 9 19 2 26 -6 6 -5 10 5 10 8 0 13 -7 12 -16 -1 -9 1 -29 5 -46 7
-26 7 -24 5 12 -2 23 2 47 8 54 8 9 8 10 -1 5 -7 -4 -13 -2 -13 3 0 6 6 11 13
11 8 0 9 3 1 8 -10 6 -10 17 -1 58 2 7 9 20 17 30 9 11 10 15 3 10 -9 -5 -13
-1 -13 11 0 14 -2 15 -9 5 -7 -11 -9 -10 -14 3 -4 9 -3 13 3 10 6 -3 10 -2 10
4 0 5 -5 13 -10 16 -6 4 -8 11 -4 16 3 5 10 7 15 3 5 -3 7 -9 4 -14 -3 -5 -1
-11 4 -15 10 -6 7 27 -4 45 -3 6 -2 10 4 10 5 0 11 -3 14 -7 2 -5 3 -3 1 4 -1
6 0 14 4 17 10 11 11 37 1 30 -5 -3 -6 -10 -3 -16 5 -7 2 -8 -6 -3 -9 6 -11 4
-5 -5 5 -9 4 -11 -4 -6 -8 5 -9 12 -3 19 5 7 8 20 7 29 -2 10 1 20 6 24 5 3 7
10 4 15 -3 5 1 6 9 3 11 -4 14 0 11 14 -2 14 3 22 17 26 18 4 19 7 8 20 -8 10
-9 16 -2 16 7 0 9 7 5 17 -4 11 -3 14 5 9 7 -4 12 -1 12 8 0 9 9 25 20 36 12
12 18 25 15 30 -3 5 -1 11 5 15 11 7 33 45 26 45 -2 0 -30 -38 -61 -84z m-88
-362 c-3 -3 -12 -4 -19 -1 -8 3 -5 6 6 6 11 1 17 -2 13 -5z m-12 -23 c3 -5 2
-12 -3 -15 -5 -3 -9 1 -9 9 0 17 3 19 12 6z m-9 -56 c1 -8 -1 -17 -5 -19 -4
-3 -7 6 -7 19 0 25 8 25 12 0z m-199 -4397 c-3 -8 -6 -5 -6 6 -1 11 2 17 5 13
3 -3 4 -12 1 -19z m10 -50 c-3 -7 -5 -2 -5 12 0 14 2 19 5 13 2 -7 2 -19 0
-25z m10 -50 c-3 -8 -6 -5 -6 6 -1 11 2 17 5 13 3 -3 4 -12 1 -19z m581 -1583
c27 -44 56 -92 66 -107 10 -16 16 -28 13 -28 -8 0 -101 149 -126 200 -25 54
-16 41 47 -65z m1117 -1068 c61 -25 139 -53 174 -63 36 -10 60 -19 54 -21 -30
-10 -361 119 -378 148 -4 6 3 4 16 -4 13 -8 74 -35 134 -60z"/>
<path d="M4850 7870 c6 -11 13 -20 16 -20 2 0 0 9 -6 20 -6 11 -13 20 -16 20
-2 0 0 -9 6 -20z"/>
<path d="M4932 7715 c34 -68 64 -123 66 -121 4 5 -116 246 -123 246 -3 0 23
-56 57 -125z"/>
<path d="M826 7651 c-4 -5 -2 -12 3 -15 5 -4 12 -2 15 3 4 5 2 12 -3 15 -5 4
-12 2 -15 -3z"/>
<path d="M4922 7575 c12 -24 23 -43 26 -41 4 5 -36 86 -43 86 -3 0 5 -20 17
-45z"/>
<path d="M5000 7575 c0 -5 5 -17 10 -25 5 -8 10 -10 10 -5 0 6 -5 17 -10 25
-5 8 -10 11 -10 5z"/>
<path d="M5021 7528 c-1 -4 10 -31 22 -60 13 -29 36 -90 51 -136 16 -46 30
-82 32 -79 6 5 -49 161 -79 227 -14 30 -26 52 -26 48z"/>
<path d="M4951 7515 c0 -5 6 -21 14 -35 8 -14 14 -20 14 -15 0 6 -6 21 -14 35
-8 14 -14 21 -14 15z"/>
<path d="M3131 7449 c138 -9 264 -37 362 -80 363 -160 658 -597 779 -1155 13
-57 26 -104 29 -104 4 0 0 30 -8 67 -7 37 -12 74 -10 83 2 8 9 -12 16 -45 20
-96 22 -101 32 -82 25 44 -161 610 -194 590 -5 -3 -7 -1 -4 5 9 13 -2 43 -14
37 -4 -3 -15 8 -24 24 -18 36 -19 45 -3 35 7 -4 8 -3 4 5 -4 6 -12 8 -18 5 -8
-5 -9 -1 -5 10 4 10 3 15 -3 11 -5 -3 -14 3 -19 14 -14 26 -14 34 2 25 7 -4 9
-3 4 2 -5 5 -14 9 -20 9 -5 0 -12 6 -15 14 -3 9 0 11 8 6 9 -5 11 -4 6 4 -4 6
-11 9 -15 7 -4 -3 -13 5 -21 17 -12 21 -12 21 5 7 17 -14 18 -14 6 8 -7 12
-17 20 -23 16 -6 -4 -8 -3 -5 3 15 24 -144 201 -253 283 -169 125 -384 192
-610 189 l-105 -2 116 -8z"/>
<path d="M4984 7440 c9 -32 39 -101 43 -97 2 3 -8 29 -22 58 -14 30 -23 47
-21 39z"/>
<path d="M3090 7290 c109 -6 167 -15 233 -34 83 -25 232 -92 176 -80 -52 11
-64 11 -78 0 -12 -9 -13 -8 -7 2 6 10 3 13 -10 11 -11 -1 -27 1 -36 5 -9 4
-22 9 -30 10 -7 2 -20 6 -28 9 -15 5 -34 10 -97 27 -18 4 -30 4 -28 -1 3 -4
-7 -2 -22 6 -21 11 -29 12 -35 2 -5 -8 -8 -8 -8 -1 0 7 -13 10 -32 9 -18 -2
-71 -4 -118 -6 -110 -2 -212 -16 -275 -36 -62 -19 -190 -85 -230 -118 l-30
-25 33 9 c61 18 235 24 327 12 477 -63 795 -447 961 -1158 14 -62 34 -123 43
-135 l18 -22 304 88 c167 49 347 101 399 116 52 16 145 43 205 60 93 26 145
53 132 67 -2 1 -143 -38 -313 -87 -170 -49 -314 -90 -320 -90 -6 0 -24 65 -40
145 -17 80 -27 145 -23 145 3 0 16 -46 28 -102 39 -191 37 -185 46 -164 10 23
-33 236 -78 382 -35 112 -124 331 -138 340 -5 3 -6 -2 -3 -10 14 -36 -7 -12
-31 34 -14 27 -38 70 -55 96 -16 26 -27 51 -24 55 7 12 -75 118 -142 185 -78
78 -150 129 -245 173 -142 67 -220 83 -409 86 l-165 3 145 -8z"/>
<path d="M5044 7285 c21 -70 75 -218 75 -209 1 13 -67 215 -75 223 -4 3 -4 -3
0 -14z"/>
<path d="M5161 7134 c0 -11 3 -14 6 -6 3 7 2 16 -1 19 -3 4 -6 -2 -5 -13z"/>
<path d="M5171 7100 c0 -8 4 -24 9 -35 5 -13 9 -14 9 -5 0 8 -4 24 -9 35 -5
13 -9 14 -9 5z"/>
<path d="M5121 7044 c0 -11 3 -14 6 -6 3 7 2 16 -1 19 -3 4 -6 -2 -5 -13z"/>
<path d="M5191 7024 c0 -11 3 -14 6 -6 3 7 2 16 -1 19 -3 4 -6 -2 -5 -13z"/>
<path d="M5201 6990 c0 -8 4 -24 9 -35 5 -13 9 -14 9 -5 0 8 -4 24 -9 35 -5
13 -9 14 -9 5z"/>
<path d="M5221 6914 c0 -11 3 -14 6 -6 3 7 2 16 -1 19 -3 4 -6 -2 -5 -13z"/>
<path d="M5232 6870 c0 -14 2 -19 5 -12 2 6 2 18 0 25 -3 6 -5 1 -5 -13z"/>
<path d="M3919 6835 c5 -11 17 -29 26 -40 l16 -20 -10 20 c-5 11 -17 29 -26
40 l-16 20 10 -20z"/>
<path d="M5241 6824 c0 -11 3 -14 6 -6 3 7 2 16 -1 19 -3 4 -6 -2 -5 -13z"/>
<path d="M727 6703 c-15 -49 -38 -137 -51 -198 -30 -138 -99 -560 -94 -576 2
-7 10 26 17 72 10 68 78 405 98 484 3 11 4 33 4 48 -1 16 3 26 8 23 5 -3 7 2
4 13 -2 10 7 63 21 116 15 54 25 100 23 102 -2 2 -16 -36 -30 -84z"/>
<path d="M5251 6774 c0 -11 3 -14 6 -6 3 7 2 16 -1 19 -3 4 -6 -2 -5 -13z"/>
<path d="M3970 6750 c6 -11 13 -20 16 -20 2 0 0 9 -6 20 -6 11 -13 20 -16 20
-2 0 0 -9 6 -20z"/>
<path d="M846 6659 c-45 -150 -117 -512 -104 -524 4 -4 64 270 79 361 5 28 20
93 33 145 14 52 23 95 21 97 -2 2 -15 -34 -29 -79z"/>
<path d="M5261 6724 c0 -11 3 -14 6 -6 3 7 2 16 -1 19 -3 4 -6 -2 -5 -13z"/>
<path d="M5281 6634 c0 -11 3 -14 6 -6 3 7 2 16 -1 19 -3 4 -6 -2 -5 -13z"/>
<path d="M5291 6564 c0 -11 3 -14 6 -6 3 7 2 16 -1 19 -3 4 -6 -2 -5 -13z"/>
<path d="M5301 6504 c0 -11 3 -14 6 -6 3 7 2 16 -1 19 -3 4 -6 -2 -5 -13z"/>
<path d="M5331 6314 c0 -11 3 -14 6 -6 3 7 2 16 -1 19 -3 4 -6 -2 -5 -13z"/>
<path d="M732 6100 c0 -14 2 -19 5 -12 2 6 2 18 0 25 -3 6 -5 1 -5 -13z"/>
<path d="M722 6050 c0 -14 2 -19 5 -12 2 6 2 18 0 25 -3 6 -5 1 -5 -13z"/>
<path d="M711 5984 c0 -11 3 -14 6 -6 3 7 2 16 -1 19 -3 4 -6 -2 -5 -13z"/>
<path d="M572 5885 c0 -16 2 -22 5 -12 2 9 2 23 0 30 -3 6 -5 -1 -5 -18z"/>
<path d="M562 5825 c0 -16 2 -22 5 -12 2 9 2 23 0 30 -3 6 -5 -1 -5 -18z"/>
<path d="M551 5734 c0 -11 3 -14 6 -6 3 7 2 16 -1 19 -3 4 -6 -2 -5 -13z"/>
<path d="M606 5508 c-27 -222 -38 -442 -40 -863 l-4 -460 8 440 c7 383 20 635
46 878 4 31 4 57 1 57 -2 0 -8 -24 -11 -52z"/>
<path d="M521 5484 c0 -11 3 -14 6 -6 3 7 2 16 -1 19 -3 4 -6 -2 -5 -13z"/>
<path d="M511 5374 c0 -11 3 -14 6 -6 3 7 2 16 -1 19 -3 4 -6 -2 -5 -13z"/>
<path d="M502 5260 c0 -14 2 -19 5 -12 2 6 2 18 0 25 -3 6 -5 1 -5 -13z"/>
<path d="M492 5100 c0 -19 2 -27 5 -17 2 9 2 25 0 35 -3 9 -5 1 -5 -18z"/>
<path d="M483 4885 c0 -33 2 -45 4 -27 2 18 2 45 0 60 -2 15 -4 0 -4 -33z"/>
<path d="M3039 4906 c-2 -2 -56 -7 -119 -11 -63 -4 -126 -8 -140 -10 -14 -2
-49 -4 -77 -4 l-53 -1 0 -795 c0 -457 4 -795 9 -795 5 0 12 -15 15 -33 14 -74
-28 -69 559 -69 493 0 529 -2 550 -18 22 -18 22 -20 25 -392 l3 -374 -32 -45
c-18 -24 -26 -38 -17 -31 8 6 35 14 59 17 66 8 73 10 88 19 11 7 12 6 6 -5 -7
-11 -6 -12 6 -3 8 6 52 12 99 13 116 2 191 11 196 25 2 6 6 121 9 256 3 135 8
334 11 442 l5 198 -218 3 -218 2 228 3 c132 1 226 6 223 11 -9 13 -1173 15
-1181 1 -3 -5 -11 -10 -16 -10 -7 0 -9 277 -7 805 2 443 0 805 -3 805 -3 0 -8
-2 -10 -4z"/>
<path d="M3858 4893 c61 -2 163 -2 225 0 61 1 11 3 -113 3 -124 0 -174 -2
-112 -3z"/>
<path d="M4838 4883 c67 -2 177 -2 245 0 67 1 12 3 -123 3 -135 0 -190 -2
-122 -3z"/>
<path d="M3095 4105 c0 -418 1 -588 2 -377 2 211 2 553 0 760 -1 207 -2 35 -2
-383z"/>
<path d="M3175 4105 c0 -357 1 -502 2 -322 2 181 2 473 0 650 -1 177 -2 30 -2
-328z"/>
<path d="M3798 4743 c7 -3 16 -2 19 1 4 3 -2 6 -13 5 -11 0 -14 -3 -6 -6z"/>
<path d="M3878 4743 c12 -2 32 -2 45 0 12 2 2 4 -23 4 -25 0 -35 -2 -22 -4z"/>
<path d="M590 4184 c0 -195 44 -664 90 -965 22 -147 24 -182 5 -99 -25 107
-15 17 16 -138 249 -1275 728 -2093 1464 -2503 377 -210 839 -291 1286 -224
58 9 118 20 135 25 28 10 28 10 -6 5 -323 -51 -588 -47 -854 11 -276 60 -621
229 -831 408 -170 144 -334 316 -431 452 -26 36 -50 61 -56 57 -6 -3 -8 -1 -5
5 8 12 -58 117 -73 117 -13 0 -53 65 -46 73 4 3 6 1 6 -4 0 -5 10 -20 21 -34
l21 -25 -21 35 c-11 19 -25 34 -31 33 -13 -4 -52 75 -44 89 4 6 3 8 -3 5 -6
-4 -14 0 -17 9 -3 8 -2 12 4 9 6 -4 5 5 -1 19 -7 14 -16 23 -22 19 -6 -3 -7
-1 -4 4 4 6 -17 62 -47 124 -262 557 -446 1319 -517 2149 -6 74 -13 151 -15
170 -1 19 -5 82 -9 139 -3 58 -8 107 -10 110 -3 2 -5 -31 -5 -75z m117 -1156
c-3 -7 -5 -2 -5 12 0 14 2 19 5 13 2 -7 2 -19 0 -25z m10 -50 c-3 -7 -5 -2 -5
12 0 14 2 19 5 13 2 -7 2 -19 0 -25z m10 -40 c-3 -8 -6 -5 -6 6 -1 11 2 17 5
13 3 -3 4 -12 1 -19z m10 -50 c-3 -8 -6 -5 -6 6 -1 11 2 17 5 13 3 -3 4 -12 1
-19z m624 -1603 c7 -13 3 -12 -10 5 -11 14 -21 30 -21 35 0 11 14 -7 31 -40z"/>
<path d="M573 4055 c0 -44 2 -61 4 -37 2 23 2 59 0 80 -2 20 -4 1 -4 -43z"/>
<path d="M583 3890 c0 -25 2 -35 4 -22 2 12 2 32 0 45 -2 12 -4 2 -4 -23z"/>
<path d="M593 3775 c0 -22 2 -30 4 -17 2 12 2 30 0 40 -3 9 -5 -1 -4 -23z"/>
<path d="M611 3574 c0 -11 3 -14 6 -6 3 7 2 16 -1 19 -3 4 -6 -2 -5 -13z"/>
<path d="M3210 3464 c36 -7 1170 -10 1170 -3 0 5 -267 8 -592 8 -326 -1 -586
-3 -578 -5z"/>
<path d="M651 3274 c0 -11 3 -14 6 -6 3 7 2 16 -1 19 -3 4 -6 -2 -5 -13z"/>
<path d="M662 3210 c0 -14 2 -19 5 -12 2 6 2 18 0 25 -3 6 -5 1 -5 -13z"/>
<path d="M1890 2805 c0 -5 5 -17 10 -25 5 -8 10 -10 10 -5 0 6 -5 17 -10 25
-5 8 -10 11 -10 5z"/>
<path d="M4268 2680 c-5 -47 -7 -114 -7 -150 l1 -65 9 48 c6 27 8 94 7 150
l-3 102 -7 -85z"/>
<path d="M1920 2725 c0 -5 5 -17 10 -25 5 -8 10 -10 10 -5 0 6 -5 17 -10 25
-5 8 -10 11 -10 5z"/>
<path d="M1950 2645 c0 -5 5 -17 10 -25 5 -8 10 -10 10 -5 0 6 -5 17 -10 25
-5 8 -10 11 -10 5z"/>
<path d="M1990 2556 c0 -10 60 -126 65 -126 3 0 -9 28 -26 63 -33 65 -39 75
-39 63z"/>
<path d="M1911 2535 c0 -5 13 -35 29 -65 16 -30 29 -50 29 -45 0 6 -13 35 -29
65 -16 30 -29 51 -29 45z"/>
<path d="M4361 2424 c0 -11 3 -14 6 -6 3 7 2 16 -1 19 -3 4 -6 -2 -5 -13z"/>
<path d="M2070 2400 c6 -11 13 -20 16 -20 2 0 0 9 -6 20 -6 11 -13 20 -16 20
-2 0 0 -9 6 -20z"/>
<path d="M2100 2350 c6 -11 13 -20 16 -20 2 0 0 9 -6 20 -6 11 -13 20 -16 20
-2 0 0 -9 6 -20z"/>
<path d="M4387 2354 c-4 -4 -7 -14 -7 -23 0 -11 3 -12 11 -4 6 6 10 16 7 23
-2 6 -7 8 -11 4z"/>
<path d="M4090 2212 c-319 -295 -594 -443 -890 -481 l-65 -8 53 -2 c63 -1 219
36 317 77 146 60 296 156 470 298 90 74 227 204 215 204 -3 0 -48 -39 -100
-88z"/>
<path d="M3625 2198 l-50 -53 53 50 c28 27 52 51 52 52 0 8 -9 -1 -55 -49z"/>
<path d="M4190 2099 c-228 -215 -449 -364 -663 -448 -95 -36 -175 -56 -322
-80 -59 -10 -59 -10 20 -5 255 17 556 162 845 410 79 67 220 205 210 204 -3
-1 -43 -37 -90 -81z"/>
<path d="M3510 2099 c-163 -141 -434 -286 -598 -320 -34 -7 -62 -16 -62 -20 0
-16 165 -26 245 -15 63 9 84 14 116 30 16 8 27 11 25 7 -3 -4 1 -8 8 -8 7 0
13 7 12 16 -1 10 8 16 23 16 15 0 27 8 31 20 8 21 40 53 40 40 0 -4 6 -3 13 3
6 6 17 12 22 14 6 1 10 13 10 25 -1 15 3 19 11 13 12 -11 24 -3 24 14 0 6 -4
5 -9 -2 -7 -11 -9 -11 -14 2 -4 9 -1 15 5 13 7 -1 12 3 13 8 0 6 6 19 12 30 6
11 12 25 13 30 1 6 6 9 11 8 5 -2 9 3 9 11 0 8 4 18 10 21 6 4 7 -1 3 -12 -3
-10 5 -5 18 12 13 16 22 30 19 31 -3 1 4 11 14 23 27 30 17 25 -24 -10z m10
-13 c0 -2 -8 -10 -17 -17 -16 -13 -17 -12 -4 4 13 16 21 21 21 13z m-133 -198
c-3 -8 -6 -5 -6 6 -1 11 2 17 5 13 3 -3 4 -12 1 -19z"/>
<path d="M3453 2015 c4 -5 0 -19 -8 -31 -9 -15 -11 -25 -5 -29 6 -4 9 -1 8 7
-2 7 2 12 7 11 15 -2 16 35 2 43 -7 4 -9 3 -4 -1z"/>
<path d="M3330 1845 c-7 -9 -10 -18 -6 -22 3 -3 6 -1 6 6 0 7 4 10 9 6 5 -3
12 -1 15 4 11 17 -11 21 -24 6z"/>
<path d="M3108 1713 c7 -3 16 -2 19 1 4 3 -2 6 -13 5 -11 0 -14 -3 -6 -6z"/>
<path d="M1255 1460 c9 -16 18 -30 21 -30 2 0 -2 14 -11 30 -9 17 -18 30 -21
30 -2 0 2 -13 11 -30z"/>
<path d="M3628 293 c7 -3 16 -2 19 1 4 3 -2 6 -13 5 -11 0 -14 -3 -6 -6z"/>
</g>
</svg>
