<?xml version="1.0" standalone="no"?>
<!DOCTYPE svg PUBLIC "-//W3C//DTD SVG 20010904//EN"
 "http://www.w3.org/TR/2001/REC-SVG-20010904/DTD/svg10.dtd">
<svg version="1.0" xmlns="http://www.w3.org/2000/svg"
 width="559.000000pt" height="897.000000pt" viewBox="0 0 559.000000 897.000000"
 preserveAspectRatio="xMidYMid meet">

<g transform="translate(0.000000,897.000000) scale(0.100000,-0.100000)"
fill="#000000" stroke="none">
<path d="M2000 6718 c-19 -5 -73 -13 -120 -17 -47 -5 -116 -20 -155 -33 -38
-14 -88 -28 -110 -32 -22 -4 -54 -16 -70 -26 -17 -11 -51 -22 -75 -26 -25 -4
-66 -17 -92 -30 -26 -13 -58 -24 -72 -24 -13 0 -50 -13 -81 -30 -31 -16 -63
-30 -70 -30 -7 0 -23 -9 -37 -19 -13 -11 -64 -40 -114 -65 -87 -45 -100 -53
-173 -108 -20 -15 -53 -40 -74 -55 -102 -76 -160 -130 -251 -237 -95 -110
-113 -135 -171 -236 -14 -25 -43 -74 -65 -110 -21 -36 -39 -72 -39 -80 -1 -8
-14 -42 -30 -76 -16 -34 -32 -76 -36 -95 -4 -19 -16 -48 -26 -65 -11 -18 -23
-65 -29 -105 -5 -41 -18 -99 -29 -129 -10 -30 -24 -105 -29 -166 -6 -61 -16
-123 -22 -138 -5 -15 -10 -40 -10 -56 0 -16 -4 -32 -10 -35 -6 -4 -10 -115
-10 -301 0 -189 4 -294 10 -294 6 0 10 -12 10 -27 0 -16 7 -46 14 -68 8 -22
19 -98 25 -168 6 -72 17 -140 26 -157 8 -15 20 -61 26 -102 6 -40 18 -86 26
-101 8 -16 20 -57 28 -93 7 -35 23 -75 34 -90 12 -15 21 -34 21 -43 0 -9 13
-44 30 -78 16 -35 44 -93 62 -130 17 -38 39 -77 49 -88 26 -30 66 -86 85 -120
22 -40 97 -129 154 -185 161 -156 229 -210 320 -258 19 -10 51 -28 70 -40 19
-12 42 -22 50 -22 9 0 34 -9 55 -21 22 -11 73 -27 113 -35 77 -15 112 -29 112
-44 0 -6 133 -10 353 -10 337 0 355 1 371 19 12 13 43 24 89 31 40 7 106 23
147 35 41 13 95 26 120 30 24 3 58 14 75 25 16 10 50 23 75 30 25 6 54 18 66
25 11 7 41 19 65 25 24 6 60 21 79 34 44 27 75 44 170 93 66 35 132 77 228
148 15 11 54 40 87 64 71 52 262 243 287 286 34 58 105 160 163 235 19 25 38
52 41 60 4 8 18 40 31 71 13 30 30 96 38 145 7 49 20 123 29 164 21 98 46 427
47 605 0 77 -7 189 -15 248 -14 97 -19 112 -47 145 -39 45 -43 47 -132 79
l-72 26 -525 7 c-289 4 -550 4 -580 0 -30 -5 -80 -20 -110 -34 -30 -14 -60
-26 -66 -26 -6 0 -22 -10 -36 -22 -14 -13 -56 -50 -93 -83 -66 -58 -168 -158
-218 -213 -56 -62 -57 -70 -57 -361 0 -223 -3 -278 -16 -310 -19 -48 -10 -69
43 -102 35 -22 48 -23 275 -27 156 -3 243 -8 253 -16 14 -10 14 -15 1 -46 -8
-19 -17 -66 -21 -105 -14 -148 -19 -155 -111 -155 -44 0 -77 6 -102 19 -20 10
-56 22 -79 26 -24 4 -59 18 -78 31 -20 13 -38 24 -42 24 -12 0 -140 122 -173
165 -19 25 -44 58 -56 73 -46 60 -130 240 -154 330 -10 37 -25 87 -33 112 -8
25 -20 83 -27 130 -7 47 -18 108 -26 135 -24 81 -30 406 -10 535 31 204 87
419 130 497 8 16 24 48 36 73 30 65 59 110 113 173 51 60 155 137 186 137 32
0 70 -39 85 -88 8 -26 24 -65 35 -87 12 -21 21 -49 21 -60 0 -12 11 -53 24
-92 13 -38 27 -98 30 -134 4 -35 14 -84 21 -109 8 -25 22 -90 30 -145 17 -111
51 -177 94 -183 21 -3 78 28 126 69 25 22 154 89 170 89 6 0 34 11 61 25 27
14 65 30 84 36 19 6 44 17 55 24 11 6 38 18 60 25 22 7 60 24 84 37 24 12 51
23 59 23 8 0 34 11 56 24 23 13 52 27 66 31 40 12 188 84 194 94 3 5 17 12 32
15 14 4 51 24 82 46 144 100 158 127 132 253 -18 91 -62 209 -92 247 -11 14
-37 53 -59 87 -46 72 -169 201 -253 264 -33 24 -75 56 -95 71 -20 15 -54 38
-75 50 -22 13 -60 35 -85 50 -25 15 -62 34 -81 42 -19 9 -57 27 -85 41 -27 14
-63 28 -80 31 -16 4 -44 15 -61 25 -18 11 -58 24 -90 30 -33 6 -82 19 -110 29
-28 10 -100 23 -160 29 -60 6 -125 15 -144 21 -42 12 -122 11 -170 -2z m385
-217 c39 -10 101 -24 139 -31 38 -6 81 -19 95 -29 14 -10 44 -21 66 -25 22 -4
58 -18 80 -30 22 -13 51 -27 65 -31 14 -4 36 -15 50 -25 14 -10 36 -21 48 -25
13 -4 53 -28 89 -53 35 -26 75 -54 88 -62 41 -28 226 -224 245 -261 10 -19 25
-41 33 -47 8 -7 31 -60 52 -118 l38 -105 -22 -23 c-23 -24 -35 -31 -156 -86
-38 -18 -97 -45 -130 -61 -33 -16 -67 -29 -75 -29 -8 0 -33 -11 -55 -25 -22
-13 -49 -25 -60 -25 -11 0 -38 -10 -60 -21 l-39 -21 -23 26 c-12 15 -32 59
-44 99 -12 40 -32 92 -45 117 -13 25 -24 48 -24 53 0 17 -83 126 -137 180 -58
59 -156 127 -181 127 -7 0 -32 10 -55 23 -37 19 -56 22 -167 22 -104 -1 -133
-4 -170 -21 -25 -12 -62 -24 -82 -28 -20 -3 -42 -13 -49 -22 -7 -8 -26 -22
-43 -31 -74 -38 -144 -105 -181 -173 -14 -25 -41 -65 -59 -90 -41 -53 -106
-181 -106 -207 0 -10 -10 -36 -21 -58 -22 -41 -64 -182 -81 -270 -13 -73 -30
-313 -30 -435 0 -125 33 -443 51 -485 7 -16 19 -59 26 -95 8 -36 23 -90 34
-120 11 -30 20 -64 21 -76 0 -12 11 -37 24 -56 13 -20 29 -51 35 -71 7 -19 18
-40 26 -47 7 -6 16 -23 20 -38 6 -24 69 -129 85 -142 3 -3 17 -21 30 -40 52
-75 178 -203 230 -231 19 -11 46 -26 60 -34 84 -47 149 -67 255 -77 207 -20
330 8 477 110 50 34 208 214 208 236 0 7 12 35 26 62 43 79 76 201 76 274 0
106 -58 224 -127 263 -11 6 -96 14 -190 19 -230 10 -263 15 -277 42 -17 29
-17 442 0 472 10 19 22 21 154 26 177 7 774 -7 883 -21 142 -18 189 -29 206
-50 9 -11 20 -50 24 -88 11 -105 8 -513 -5 -553 -6 -19 -20 -86 -31 -149 -11
-62 -27 -130 -35 -150 -9 -20 -23 -58 -31 -86 -28 -92 -126 -267 -201 -360
-41 -49 -110 -121 -155 -158 -45 -37 -87 -73 -92 -80 -19 -23 -92 -75 -126
-91 -19 -9 -45 -23 -59 -31 -14 -8 -41 -22 -60 -31 -19 -9 -69 -34 -110 -55
-41 -21 -83 -39 -94 -39 -10 0 -57 -13 -105 -29 -47 -17 -115 -35 -151 -41
-36 -6 -96 -16 -135 -23 -87 -14 -357 -14 -450 0 -116 19 -215 43 -238 58 -12
8 -45 19 -73 25 -29 6 -67 22 -85 36 -18 13 -38 24 -45 24 -7 0 -25 10 -41 23
-15 12 -44 30 -64 39 -41 19 -250 215 -288 271 -14 21 -36 56 -48 78 -12 22
-27 46 -33 54 -21 26 -79 125 -85 148 -4 12 -14 33 -23 47 -20 31 -59 120 -79
180 -8 25 -25 70 -38 100 -13 30 -26 77 -30 104 -4 28 -15 72 -26 98 -10 27
-23 90 -29 141 -6 50 -15 117 -21 147 -24 123 8 654 46 770 9 25 22 82 30 127
7 45 20 94 28 110 8 15 20 54 27 87 7 32 23 79 36 104 13 25 24 54 24 65 0 10
11 40 24 66 13 25 45 89 71 141 54 109 76 147 142 245 7 11 25 38 40 60 35 53
267 284 322 321 24 16 58 38 76 49 19 12 42 28 52 37 10 9 32 20 48 24 17 4
46 15 65 24 69 35 191 71 267 80 122 14 356 4 438 -19z m-1275 -271 c0 -11
-20 -42 -44 -68 -51 -53 -86 -100 -115 -153 -11 -19 -27 -41 -35 -48 -9 -8
-16 -18 -16 -22 0 -10 -53 -93 -88 -139 -11 -14 -23 -36 -27 -50 -4 -14 -17
-43 -30 -65 -12 -22 -25 -52 -29 -67 -3 -15 -17 -44 -31 -64 -14 -20 -25 -44
-25 -54 0 -9 -11 -38 -24 -63 -14 -25 -28 -63 -32 -84 -4 -21 -15 -55 -25 -75
-11 -21 -26 -68 -34 -105 -7 -38 -21 -88 -29 -112 -9 -24 -23 -116 -32 -205
-8 -88 -20 -184 -26 -212 -6 -31 -8 -92 -3 -160 4 -60 8 -145 9 -189 2 -44 8
-105 14 -135 6 -30 14 -95 17 -145 4 -49 16 -115 26 -145 11 -30 24 -86 30
-125 6 -38 19 -89 30 -113 10 -24 21 -60 25 -80 4 -20 18 -57 31 -81 12 -24
23 -53 23 -64 0 -20 52 -129 115 -242 18 -33 38 -70 44 -83 18 -39 171 -211
227 -255 145 -116 266 -195 324 -215 25 -9 59 -24 75 -34 17 -10 37 -18 45
-18 9 0 34 -10 55 -21 22 -12 87 -30 145 -41 58 -11 128 -24 155 -29 28 -5 83
-13 124 -18 76 -9 103 -23 84 -42 -10 -10 -212 -37 -350 -46 -81 -5 -295 27
-343 52 -16 8 -60 22 -97 30 -37 8 -86 23 -108 35 -21 11 -44 20 -51 20 -6 0
-28 14 -49 30 -21 17 -43 30 -50 30 -7 0 -18 6 -24 14 -7 8 -32 24 -57 35 -66
31 -289 257 -350 354 -18 29 -42 66 -54 82 -48 70 -80 121 -80 130 0 6 -14 37
-30 70 -16 33 -30 66 -30 74 0 8 -11 33 -24 55 -13 23 -28 59 -32 81 -3 22
-15 60 -24 85 -10 25 -23 81 -30 125 -7 44 -19 96 -27 115 -9 21 -20 110 -29
225 -8 105 -18 224 -22 265 -13 133 18 566 48 675 10 39 24 105 29 148 6 43
19 94 29 115 10 20 24 63 31 94 7 32 16 60 21 63 5 3 16 31 25 62 9 31 25 68
35 80 10 13 22 38 25 56 8 34 41 93 88 154 15 20 27 40 27 44 0 8 65 99 79
109 3 3 29 33 57 66 47 58 110 117 183 174 18 14 46 36 64 50 58 46 133 90
155 90 6 0 12 -9 12 -20z m1265 -411 c33 -18 78 -51 100 -74 45 -49 95 -125
95 -147 0 -7 9 -32 21 -53 11 -22 27 -65 34 -95 8 -30 24 -81 36 -112 12 -32
19 -64 16 -71 -7 -18 -98 -69 -154 -87 -33 -10 -46 -10 -57 -1 -21 17 -53 132
-65 231 -5 47 -19 105 -30 130 -11 25 -21 54 -21 66 0 12 -13 45 -29 75 -15
30 -32 65 -36 79 -4 14 -14 33 -23 42 -12 14 -12 20 -2 33 19 23 48 18 115
-16z m-99 -1492 c1 -76 5 -163 9 -193 l7 -56 -46 -44 c-92 -88 -119 -92 -130
-17 -9 67 -7 272 3 317 10 41 47 87 96 117 56 36 60 29 61 -124z m424 -382
c15 -18 13 -21 -48 -57 -98 -57 -105 -59 -207 -52 -55 4 -103 13 -113 20 -21
17 -22 16 103 91 31 20 249 17 265 -2z m148 -228 c3 -51 -2 -68 -33 -128 -43
-83 -98 -141 -128 -137 -24 3 -24 -7 -10 163 l8 100 50 33 c34 22 60 32 80 30
29 -3 30 -5 33 -61z"/>
</g>
</svg>
